{"title":"Angel and the Bad Man91947)MPEG-4[DaScubaDude]","uid":14865722,"size":995751060,"categoryP":"video","categoryS":"movies","magnet":"?xt=urn:btih:8ce2748198cc3ed67478aaa8b623cdcc0c61b4b8&amp;dn=Angel+and+the+Bad+Man91947%29MPEG-4%5BDaScubaDude%5D&amp;tr=udp%3A%2F%2Ftracker.leechers-paradise.org%3A6969&amp;tr=udp%3A%2F%2Fzer0day.ch%3A1337&amp;tr=udp%3A%2F%2Fopen.demonii.com%3A1337&amp;tr=udp%3A%2F%2Ftracker.coppersurfer.tk%3A6969&amp;tr=udp%3A%2F%2Fexodus.desync.com%3A6969","seeders":0,"leechers":0,"uploader":"dascuba","files":1,"time":1465543807,"description":"Angel and the Badman (1947)\r\nApproved | 1h 40min | Romance, Western | 15 February 1947 (USA)\r\nQuirt Evans, an all round bad guy, is nursed back to health and sought after by Penelope Worth, a Quaker girl. He eventually finds himself having to choose between his world and the world Penelope lives in.\r\nDirector: James Edward Grant\r\nWriter: James Edward Grant\r\nStars: John Wayne, Gail Russell, Harry Carey |\r\n\r\nGeneral\r\nComplete name                            : AngelandtheBadManANGEL_STEEL_Title1.mp4\r\nFormat                                   : MPEG-4\r\nFormat profile                           : Base Media\r\nCodec ID                                 : isom (isom/iso2/avc1/mp41)\r\nFile size                                : 950 MiB\r\nDuration                                 : 1h 39mn\r\nOverall bit rate                         : 1 334 Kbps\r\nMovie name                               : ANGEL_STEEL\r\nWriting application                      : Lavf54.6.100\r\n\r\nVideo\r\nID                                       : 1\r\nFormat                                   : AVC\r\nFormat/Info                              : Advanced Video Codec\r\nFormat profile                           :   \r\nFormat settings, CABAC                   : No\r\nFormat settings, ReFrames                : 6 frames\r\nCodec ID                                 : avc1\r\nCodec ID/Info                            : Advanced Video Coding\r\nDuration                                 : 1h 39mn\r\nBit rate                                 : 1 199 Kbps\r\nWidth                                    : 720 pixels\r\nHeight                                   : 540 pixels\r\nDisplay aspect ratio                     : 4:3\r\nFrame rate mode                          : Constant\r\nFrame rate                               : 29.970 (30000/1001) fps\r\nColor space                              : YUV\r\nChroma subsampling                       : 4:2:0\r\nBit depth                                : 8 bits\r\nScan type                                : Progressive\r\nBits/(Pixel*Frame)                       : 0.103\r\nStream size                              : 854 MiB (90%)\r\n\r\nAudio\r\nID                                       : 2\r\nFormat                                   : AAC\r\nFormat/Info                              : Advanced Audio Codec\r\nFormat profile                           : LC\r\nCodec ID                                 : 40\r\nDuration                                 : 1h 39mn\r\nBit rate mode                            : Constant\r\nBit rate                                 : 128 Kbps\r\nChannel(s)                               : 2 channels\r\nChannel positions                        : Front: L R\r\nSampling rate                            : 44.1 KHz\r\nFrame rate                               : 43.066 fps (1024 spf)\r\nCompression mode                         : Lossy\r\nStream size                              : 91.1 MiB (10%)\r\nDefault                                  : Yes\r\nAlternate group                          : 1","torrent":{"xt":"urn:btih:8ce2748198cc3ed67478aaa8b623cdcc0c61b4b8","amp;dn":"Angel+and+the+Bad+Man91947%29MPEG-4%5BDaScubaDude%5D","amp;tr":["udp%3A%2F%2Ftracker.leechers-paradise.org%3A6969","udp%3A%2F%2Fzer0day.ch%3A1337","udp%3A%2F%2Fopen.demonii.com%3A1337","udp%3A%2F%2Ftracker.coppersurfer.tk%3A6969","udp%3A%2F%2Fexodus.desync.com%3A6969"],"infoHash":"8ce2748198cc3ed67478aaa8b623cdcc0c61b4b8","infoHashBuffer":{"type":"Buffer","data":[140,226,116,129,152,204,62,214,116,120,170,168,182,35,205,204,12,97,180,184]},"announce":[],"urlList":[]}}